<svg viewBox="0 0 78.755 36.752" xmlns="http://www.w3.org/2000/svg">  <path d="m9.7866 28.524c-0.42874 0.11603-0.80467 0.24519-1.1916 0.31901-4.1919 0.79963-8.4513-2.4464-8.5523-6.5703-0.062794-2.5633-0.049143-5.1293-0.0054604-7.6934 0.053658-3.0097 2.3859-5.8533 5.4245-6.5509 1.6048-0.3691 3.2279-0.37876 4.7454 0.4657 0.19573 0.109 0.55171 0.087891 0.76918-0.0062 0.57901-0.25653 1.1088-0.61502 1.6823-0.8787 1.0013-0.47096 2.0864 0.14848 2.1401 1.2303 0.03728 0.75395 0.01176 1.5114 0.01176 2.2671 0 6.1828-0.0024 12.366-0.0072 18.548-0.0064 2.892-1.9244 5.5511-4.7118 6.6029-2.8364 1.0712-6.1691 0.38926-8.2027-1.6784-1.3382-1.362-0.8348-3.4394 0.97583-3.9675 0.94853-0.27596 1.7732-0.01848 2.4796 0.63445 0.70638 0.65283 1.5084 0.94202 2.4661 0.73988 1.623-0.34358 2.3849-1.645 1.9762-3.4623zm-4.9093-10.169v1.5817 1.6494c0.00914 1.5598 1.0405 2.6617 2.5116 2.6854 1.471 0.02373 2.5206-1.0414 2.5389-2.646 0.020896-1.9006 0.00725-3.8023 0-5.703 0.013651-0.41079-0.00462-0.82199-0.054604-1.2302-0.23763-1.4869-1.2544-2.3129-2.6627-2.1968-1.3745 0.11246-2.314 1.1335-2.3322 2.5658-0.010921 1.0941 8.401e-4 2.1942-9.45e-4 3.2935z" fill="#0595f9"></path>  <path d="m18.345 18.21s-0.07014-3.2672 0.17662-4.8638c0.42874-2.775 2.1847-4.6573 4.8947-5.5457 2.7837-0.91041 5.338-0.29528 7.4991 1.6565 1.5831 1.4315 2.1984 3.2706 2.2758 5.3084 0.02636 0.68538 0.06006 1.3823-0.03003 2.0589-0.20844 1.558-1.249 2.5088-2.9976 2.8761-2.1283 0.45079-4.2485 0.93676-6.3795 1.3796-0.38779 0.08086-0.49427 0.24435-0.49973 0.59759-0.0209 1.1889 0.66175 2.174 1.7469 2.4763 1.1624 0.32248 2.2812-0.14942 2.9475-1.2452 1.0013-1.645 2.812-1.9332 4.0754-0.64495 0.71457 0.72843 0.84205 1.7521 0.34043 2.7416-1.3654 2.703-4.4859 4.3138-7.5819 3.9165-1.7677-0.22461-3.3929-1.0551-4.5793-2.3399-1.1864-1.2848-1.8549-2.9384-1.8838-4.6593-0.0209-1.2373 0-2.4754 0-3.7127zm4.8719-1.8717c1.7169-0.36721 3.2534-0.69063 4.7855-1.0342 0.09566-0.02111 0.19573-0.18723 0.22303-0.30053 0.30221-1.2575-0.61628-2.5114-2.0536-2.8198-1.2098-0.26367-2.6016 0.59927-2.8155 1.8181-0.12475 0.70827-0.09199 1.4429-0.13934 2.3365z" fill="#0595f9"></path>  <path d="m68.965 21.178c-0.25307 1.4059 0.35965 2.5132 1.5722 2.9385 1.1724 0.41215 2.3667-0.06332 3.0659-1.2162 0.63718-1.0501 1.5475-1.5352 2.6217-1.3954 0.96669 0.12475 1.7806 0.8787 2.0281 1.8744 0.20938 0.83648-0.15289 1.5439-0.5935 2.1924-1.6485 2.4227-3.9962 3.6406-6.9911 3.3515-3.1433-0.30316-5.2743-2.0079-6.2994-4.8972-0.25485-0.72056-0.34946-1.5211-0.36406-2.2847-0.04463-2.4042-0.02552-4.8093-0.01281-7.2144 0.02184-3.9113 3.2918-7.0739 7.3171-7.0932 4.0964-0.018481 7.3635 3.0711 7.4363 7.0395 0.01281 0.70911 0.0146 1.42 0 2.1292-0.02814 1.4297-0.97856 2.5966-2.4241 2.9288-2.4396 0.5579-4.8866 1.0931-7.3562 1.6467zm-0.06185-4.8515c1.5931-0.33739 3.1196-0.64768 4.6344-1.0009 0.14838-0.03423 0.31586-0.32153 0.33224-0.50351 0.06227-0.64674-0.14155-1.2912-0.56735-1.7941-0.4258-0.50288-1.0395-0.82399-1.7084-0.89392-1.2399-0.14407-2.4743 0.74964-2.6773 2.0413-0.09745 0.66438-0.01365 1.3568-0.01365 2.1503z" fill="#0595f9"></path>  <path d="m36.594 20.387c0-1.9016-0.0091-3.8031 0-5.7047 0.01995-3.348 2.1692-6.0924 5.4891-7.03 4.1591-1.1713 8.7389 1.7321 9.2341 5.8876 0.10375 0.86022 0.10921 1.7346 0.11288 2.6028 0.01333 3.3913 0.01554 6.7821 0.0064 10.172 0 1.2627-0.64359 2.2144-1.6759 2.536-1.6385 0.51054-3.247-0.59056-3.2534-2.261-0.01544-3.964 0-7.9272-0.01092-11.891-0.0064-1.7883-1.5393-2.9122-3.2552-2.4183-1.0469 0.30137-1.6923 1.2118-1.6941 2.4226-0.0055 3.8032-0.0077 7.6064-0.0064 11.41 0.0078 0.2517-0.0032 0.50372-0.03276 0.75395-0.16297 1.0967-0.97499 1.9094-2.061 2.0826-1.015 0.16255-2.1219-0.3418-2.5379-1.2584-0.19773-0.4636-0.30074-0.95987-0.30316-1.4613-0.03549-1.9438-0.01176-3.892-0.01176-5.8428z" fill="#0595f9"></path>  <path d="m55.41 18.19c0-2.7689-0.0072-5.5361 0-8.3067 0-1.0607 0.49973-1.8401 1.5239-2.2689 0.9249-0.38758 1.7678-0.18366 2.5161 0.40501 0.60904 0.47894 0.85748 1.1538 0.85938 1.8867 0.01092 5.539 0.01092 11.077 0 16.615-0.0055 1.4385-1.1124 2.471-2.5034 2.4561-1.3655-0.01491-2.385-1.0818-2.3913-2.5483-0.01281-2.7479-0.0046-5.4948-0.0046-8.2391z" fill="#0595f9"></path>  <path d="m57.826 5.8394c-0.40238-0.0027301-0.80026-0.082955-1.1702-0.23595-0.37004-0.15299-0.7046-0.37574-0.98433-0.65509-0.27974-0.27935-0.49899-0.60975-0.64485-0.97187-0.14585-0.36212-0.21537-0.74868-0.20455-1.1371 0.023627-1.5949 1.4028-2.8594 3.095-2.8392 1.6249 0.020203 2.9758 1.3269 2.9822 2.8902-0.0026 0.7844-0.32783 1.5357-0.90411 2.0887-0.57638 0.55299-1.3565 0.86244-2.1691 0.86034z" fill="#0595f9"></path> </svg>
